<?xml version="1.0" encoding="UTF-8" standalone="no"?><!DOCTYPE svg PUBLIC "-//W3C//DTD SVG 1.1//EN" "http://www.w3.org/Graphics/SVG/1.1/DTD/svg11.dtd">
<svg width="100%" height="100%" viewBox="0 0 5000 5000" version="1.1"
    xmlns="http://www.w3.org/2000/svg"
    xmlns:xlink="http://www.w3.org/1999/xlink" xml:space="preserve"
    xmlns:serif="http://www.serif.com/" style="fill-rule:evenodd;clip-rule:evenodd;stroke-linecap:round;stroke-linejoin:round;stroke-miterlimit:1.5;">
    <g>
        <g>
            <path d="M1593.67,1598.41c-8.982,23.678 -18.78,50.623 -29.395,80.834c-10.614,30.211 -22.862,68.179 -36.743,113.904c-11.431,35.11 -21.433,68.587 -30.006,100.431c-8.574,31.844 -17.351,65.321 -26.333,100.431c-13.064,-7.349 -24.495,-13.677 -34.293,-18.984c-9.799,-5.308 -19.393,-10.003 -28.782,-14.085c-9.39,-4.083 -18.372,-8.165 -26.945,-12.248c-8.574,-4.082 -18.168,-8.165 -28.782,-12.248c15.513,-29.394 29.802,-59.197 42.867,-89.408c13.064,-30.211 26.536,-64.912 40.417,-104.105c11.431,-31.027 22.046,-62.871 31.844,-95.532c9.798,-32.66 19.596,-68.178 29.394,-106.555c13.881,16.331 28.17,28.783 42.867,37.356c14.697,8.573 32.661,15.309 53.89,20.209Zm-60.014,-149.422c-12.247,-8.982 -26.128,-19.188 -41.642,-30.619c-15.514,-11.431 -31.64,-22.659 -48.378,-33.681c-16.739,-11.023 -33.273,-21.434 -49.603,-31.232c-16.331,-9.798 -31.844,-18.372 -46.541,-25.72l61.238,-80.835c31.027,15.514 63.892,33.681 98.594,54.502c34.702,20.821 65.117,40.622 91.245,59.402l-64.913,88.183Zm45.317,-260.876c-8.982,-11.431 -20.209,-23.883 -33.681,-37.355c-13.473,-13.473 -28.578,-26.945 -45.317,-40.417c-16.738,-13.473 -34.089,-26.537 -52.052,-39.193c-17.964,-12.656 -35.927,-23.475 -53.89,-32.456l73.486,-80.835c14.697,11.431 30.007,23.271 45.929,35.518c15.922,12.248 31.844,24.496 47.766,36.743c15.922,12.248 31.435,24.292 46.541,36.131c15.105,11.839 28.782,22.658 41.029,32.456l-69.811,89.408Zm318.439,-86.958l0,77.16l236.38,0l0,-77.16l-236.38,-0Zm164.119,268.224c0,15.514 0.204,31.027 0.613,46.541c0.408,15.514 0.204,30.619 -0.613,45.317l193.513,-0l0,-91.858l-193.513,-0Zm-93.082,91.858c-0,-14.698 -0.204,-29.599 -0.613,-44.704c-0.408,-15.106 -0.612,-30.824 -0.612,-47.154l-178.816,-0l-0,91.858l180.041,-0Zm93.082,63.687l0,33.069c0,10.615 -0.408,21.23 -1.225,31.844c68.587,0 126.56,-0.612 173.917,-1.837c47.358,-1.225 89.408,-3.47 126.151,-6.736l0,80.834c-36.743,-3.266 -78.997,-5.307 -126.763,-6.123c-47.766,-0.817 -106.351,-1.225 -175.754,-1.225c-0.817,13.881 -1.633,26.128 -2.45,36.743c-0.816,10.615 -2.041,19.596 -3.674,26.945c44.908,-0 84.917,-0.204 120.027,-0.613c35.11,-0.408 67.158,-1.02 96.145,-1.837c28.986,-0.816 55.522,-1.837 79.609,-3.062c24.088,-1.224 47.97,-2.653 71.649,-4.286l0,83.284c-38.376,-3.266 -83.284,-5.92 -134.724,-7.961c-51.44,-2.041 -109.413,-3.062 -173.917,-3.062c29.394,38.376 72.874,69.199 130.438,92.47c57.564,23.27 125.538,37.355 203.923,42.254c-15.513,16.331 -26.944,32.865 -34.293,49.603c-7.349,16.739 -13.064,34.906 -17.147,54.503c-53.073,-13.065 -99.002,-27.353 -137.786,-42.867c-38.784,-15.514 -72.261,-32.661 -100.431,-51.44c-28.17,-18.78 -51.644,-40.01 -70.424,-63.688c-18.78,-23.679 -34.702,-50.624 -47.766,-80.835l-4.899,-0c-11.431,24.495 -26.333,47.562 -44.704,69.199c-18.372,21.638 -41.438,42.255 -69.2,61.851c-27.761,19.596 -60.83,38.58 -99.206,56.952c-38.376,18.371 -82.468,36.539 -132.275,54.502c-8.981,-18.78 -18.575,-34.498 -28.782,-47.154c-10.206,-12.656 -24.699,-25.924 -43.479,-39.805c47.358,-9.798 88.591,-20.208 123.701,-31.231c35.11,-11.023 65.526,-22.862 91.246,-35.518c25.72,-12.656 47.153,-26.333 64.3,-41.03c17.147,-14.697 30.619,-30.619 40.417,-47.766c-35.926,-0 -68.383,0.204 -97.369,0.612c-28.986,0.409 -56.135,1.021 -81.447,1.837c-25.312,0.817 -49.603,2.042 -72.873,3.675c-23.271,1.633 -46.746,3.266 -70.425,4.899l0,-83.284c22.863,1.633 45.725,3.062 68.587,4.286c22.863,1.225 47.97,2.246 75.324,3.062c27.353,0.817 57.36,1.429 90.02,1.837c32.661,0.409 70.22,0.613 112.679,0.613c1.633,-9.798 3.266,-20.005 4.899,-30.619c1.633,-10.615 2.858,-21.638 3.674,-33.069c-62.871,-0 -116.149,0.408 -159.832,1.225c-43.684,0.816 -83.08,2.857 -118.19,6.123l-0,-80.834c35.926,2.449 75.731,4.491 119.415,6.124c43.683,1.633 96.96,2.449 159.832,2.449l-0,-64.913l-157.995,0c-22.046,0 -42.459,0.205 -61.239,0.613c-18.779,0.408 -37.559,1.021 -56.339,1.837c4.899,-32.66 7.349,-69.812 7.349,-111.454c-0,-22.046 -0.613,-43.071 -1.837,-63.075c-1.225,-20.005 -3.062,-38.172 -5.512,-54.503c18.78,1.633 37.56,2.654 56.339,3.062c18.78,0.409 38.989,1.021 60.626,1.838c21.638,0.816 45.113,1.224 70.425,1.224l85.733,0l0,-58.789c-65.321,0 -116.761,1.225 -154.32,3.675l-0,-148.197c-26.945,-0 -51.849,0.816 -74.711,2.449c-22.863,1.633 -45.317,3.675 -67.363,6.124l0,-93.082c22.863,3.266 45.725,5.715 68.587,7.348c22.863,1.634 47.358,2.45 73.487,2.45c-0,-35.11 -0.613,-60.014 -1.838,-74.711c-1.224,-14.697 -3.47,-26.945 -6.736,-36.743c22.862,1.633 42.663,2.654 59.401,3.062c16.739,0.408 33.682,-0.204 50.828,-1.837c8.982,-0.817 13.677,1.021 14.085,5.511c0.408,4.491 -3.47,8.778 -11.635,12.86c-8.165,4.083 -13.269,7.757 -15.31,11.023c-2.041,3.266 -3.062,9.39 -3.062,18.372l0,62.463l236.38,0l0,-47.766c0,-12.248 -0.204,-22.454 -0.612,-30.619c-0.408,-8.165 -1.021,-14.697 -1.837,-19.596c-0.817,-4.899 -1.633,-9.799 -2.45,-14.698c21.23,2.45 40.418,3.879 57.564,4.287c17.147,0.408 34.702,-0.204 52.665,-1.837c6.533,-0.817 10.615,0.816 12.248,4.899c1.633,4.083 -1.633,8.573 -9.798,13.472c-7.349,4.9 -12.248,9.594 -14.697,14.085c-2.45,4.491 -3.675,11.227 -3.675,20.209l0,57.564c22.046,0 41.847,-0.204 59.402,-0.612c17.555,-0.409 33.885,-1.021 48.99,-1.838c15.106,-0.816 29.599,-1.837 43.48,-3.061c13.88,-1.225 27.761,-2.654 41.642,-4.287l-0,93.082c-28.578,-3.266 -57.564,-5.511 -86.959,-6.736c-29.394,-1.225 -64.912,-1.837 -106.555,-1.837l0,148.197c-44.091,-2.45 -99.206,-3.675 -165.343,-3.675c0.816,9.799 1.225,19.597 1.225,29.395c-0,9.798 0.408,19.596 1.224,29.394l91.246,0c26.536,0 51.236,-0.408 74.098,-1.224c22.862,-0.817 44.296,-1.429 64.3,-1.838c20.005,-0.408 39.805,-1.429 59.402,-3.062c-0.817,14.698 -1.429,32.457 -1.838,53.278c-0.408,20.821 -0.612,42.254 -0.612,64.3c0,21.229 0.204,41.846 0.612,61.851c0.409,20.004 1.021,37.355 1.838,52.053c-18.78,-0.817 -37.968,-1.633 -57.565,-2.45c-19.596,-0.816 -40.825,-1.429 -63.687,-1.837c-22.863,-0.408 -47.766,-0.613 -74.711,-0.613l-91.858,0Z" style="fill-rule:nonzero;"/>
            <path d="M3082.99,1054.62c-6.532,-22.046 -13.88,-44.908 -22.045,-68.587c-8.165,-23.679 -15.922,-43.275 -23.271,-58.789l122.477,-30.619c6.532,23.678 14.289,49.807 23.27,78.385c8.982,28.578 17.964,55.114 26.945,79.61c56.34,-0 104.718,-0.204 145.135,-0.613c40.418,-0.408 75.732,-0.816 105.943,-1.224c30.211,-0.409 56.135,-1.225 77.772,-2.45c21.638,-1.225 42.255,-2.654 61.851,-4.287l0,249.853l-110.229,-0l0,-154.321l-752.007,0l-0,173.917l-105.33,0l-0,-269.449c21.229,1.633 43.887,3.062 67.974,4.287c24.087,1.225 53.278,2.041 87.571,2.45c34.294,0.408 74.915,0.816 121.865,1.224c46.949,0.409 104.309,0.613 172.079,0.613Zm118.803,500.93c99.614,-0.817 185.144,-2.042 256.589,-3.675c71.445,-1.633 136.153,-4.49 194.125,-8.573l0,111.454c-57.972,-4.083 -122.68,-6.94 -194.125,-8.574c-71.445,-1.633 -156.975,-2.857 -256.589,-3.674l-0,253.527c-0,17.147 -2.654,32.252 -7.961,45.317c-5.307,13.064 -15.922,24.495 -31.844,34.293c-15.922,9.798 -38.172,18.372 -66.75,25.72c-28.578,7.349 -66.137,13.473 -112.679,18.372c-2.449,-21.23 -6.94,-40.826 -13.472,-58.789c-6.532,-17.963 -17.147,-39.193 -31.844,-63.688c34.294,1.633 61.443,2.245 81.447,1.837c20.005,-0.408 35.314,-2.654 45.929,-6.736c10.615,-4.083 17.555,-10.002 20.821,-17.759c3.266,-7.757 4.899,-18.168 4.899,-31.232l0,-200.862c-113.495,0 -209.843,1.021 -289.045,3.062c-79.202,2.041 -149.83,5.103 -211.885,9.186l0,-111.454c31.027,2.45 64.096,4.287 99.206,5.511c35.11,1.225 72.874,2.45 113.291,3.675c40.418,1.225 84.509,2.041 132.275,2.449c47.766,0.409 99.819,0.613 156.158,0.613l0,-89.408c38.376,-17.964 70.628,-35.315 96.757,-52.053c26.128,-16.738 48.582,-33.681 67.362,-50.828l-331.912,0c-26.129,0 -49.195,0.204 -69.2,0.613c-20.004,0.408 -40.621,1.428 -61.85,3.061l-0,-100.431c23.679,1.634 45.929,2.858 66.75,3.675c20.821,0.816 43.071,1.633 66.749,2.449c23.679,0.817 50.42,1.225 80.223,1.225l107.167,0c50.624,0 93.899,-0.204 129.825,-0.612c35.927,-0.409 66.138,-0.817 90.633,-1.225c24.495,-0.408 44.704,-1.021 60.626,-1.837c15.922,-0.817 29.599,-2.041 41.03,-3.675l-0,91.858c-16.33,4.899 -43.275,19.392 -80.835,43.479c-37.559,24.087 -88.183,60.626 -151.871,109.617l-0,44.092Z" style="fill-rule:nonzero;"/>
        </g>
        <g>
            <path d="M1175.24,4020.83l0,-903.55l119.57,0l-0,448.077l448.693,-448.077l162.097,0l-379.048,366.104l395.689,537.446l-157.782,0l-321.728,-457.322l-147.921,144.223l-0,313.099l-119.57,0Z" style="fill-rule:nonzero;"/>
            <path d="M2435.04,3940.09c-41.089,34.926 -80.637,59.579 -118.644,73.961c-38.008,14.381 -78.789,21.571 -122.343,21.571c-71.906,0 -127.171,-17.565 -165.795,-52.696c-38.624,-35.132 -57.936,-80.022 -57.936,-134.67c0,-32.05 7.294,-61.326 21.88,-87.828c14.587,-26.503 33.693,-47.766 57.32,-63.791c23.626,-16.025 50.231,-28.146 79.815,-36.364c21.777,-5.752 54.649,-11.299 98.614,-16.641c89.575,-10.683 155.523,-23.421 197.844,-38.213c0.411,-15.203 0.617,-24.859 0.617,-28.968c-0,-45.198 -10.478,-77.042 -31.433,-95.532c-28.352,-25.064 -70.468,-37.597 -126.35,-37.597c-52.183,0 -90.704,9.143 -115.563,27.427c-24.859,18.285 -43.246,50.643 -55.162,97.073l-108.475,-14.792c9.861,-46.43 26.091,-83.924 48.69,-112.481c22.599,-28.557 55.265,-50.54 97.998,-65.948c42.733,-15.409 92.245,-23.113 148.537,-23.113c55.881,0 101.285,6.574 136.211,19.723c34.926,13.148 60.606,29.687 77.042,49.615c16.436,19.928 27.941,45.095 34.515,75.501c3.698,18.901 5.547,53.005 5.547,102.312l-0,147.921c-0,103.134 2.362,168.363 7.088,195.687c4.725,27.325 14.073,53.519 28.043,78.583l-115.871,0c-11.505,-23.01 -18.901,-49.923 -22.189,-80.74Zm-9.245,-247.767c-40.267,16.435 -100.668,30.406 -181.203,41.911c-45.609,6.574 -77.864,13.97 -96.765,22.188c-18.901,8.218 -33.487,20.236 -43.76,36.055c-10.272,15.82 -15.408,33.385 -15.408,52.697c-0,29.584 11.197,54.238 33.59,73.961c22.394,19.722 55.163,29.584 98.306,29.584c42.733,-0 80.74,-9.348 114.023,-28.043c33.282,-18.696 57.73,-44.274 73.344,-76.734c11.916,-25.065 17.873,-62.045 17.873,-110.941l0,-40.678Z" style="fill-rule:nonzero;"/>
            <path d="M2709.92,4020.83l-0,-654.55l99.847,0l-0,93.067c48.074,-71.906 117.514,-107.859 208.321,-107.859c39.446,0 75.707,7.088 108.784,21.264c33.077,14.176 57.833,32.768 74.269,55.778c16.435,23.01 27.94,50.334 34.515,81.973c4.108,20.545 6.163,56.498 6.163,107.859l-0,402.468l-110.941,0l0,-398.153c0,-45.199 -4.314,-78.994 -12.943,-101.388c-8.629,-22.394 -23.934,-40.267 -45.917,-53.621c-21.983,-13.354 -47.766,-20.031 -77.35,-20.031c-47.253,-0 -88.034,14.997 -122.343,44.992c-34.31,29.995 -51.464,86.904 -51.464,170.726l-0,357.475l-110.941,0Z" style="fill-rule:nonzero;"/>
            <path d="M3411.32,3246.1l-0,-128.814l110.94,0l0,128.814l-110.94,0Zm-140.525,1028.67l20.955,-94.299c22.188,5.752 39.651,8.628 52.389,8.628c22.599,0 39.445,-7.498 50.54,-22.496c11.094,-14.997 16.641,-52.491 16.641,-112.481l-0,-687.833l110.94,0l0,690.298c0,80.535 -10.477,136.621 -31.433,168.26c-26.708,41.089 -71.084,61.634 -133.129,61.634c-29.995,-0 -58.963,-3.904 -86.903,-11.711Z" style="fill-rule:nonzero;"/>
            <path d="M3692.98,3244.87l-0,-127.582l110.94,0l0,127.582l-110.94,-0Zm-0,775.968l-0,-654.55l110.94,0l0,654.55l-110.94,0Z" style="fill-rule:nonzero;"/>
        </g>
        <path d="M275,2500l4429.17,0" style="fill:none;stroke:#000;stroke-width:8.33px;"/>
    </g>
</svg>