<?xml version="1.0" encoding="UTF-8" standalone="no"?><!DOCTYPE svg PUBLIC "-//W3C//DTD SVG 1.1//EN" "http://www.w3.org/Graphics/SVG/1.1/DTD/svg11.dtd">
<svg width="100%" height="100%" viewBox="0 0 5000 5000" version="1.1"
    xmlns="http://www.w3.org/2000/svg"
    xmlns:xlink="http://www.w3.org/1999/xlink" xml:space="preserve"
    xmlns:serif="http://www.serif.com/" style="fill-rule:evenodd;clip-rule:evenodd;stroke-linejoin:round;stroke-miterlimit:2;">
    <g>
        <g>
            <path d="M2425,3286.46c0,-63.815 -51.81,-115.625 -115.625,-115.625l-2002.08,0c-63.816,0 -115.625,51.81 -115.625,115.625l-0,231.25c-0,63.816 51.809,115.625 115.625,115.625l2002.08,0c63.815,0 115.625,-51.809 115.625,-115.625l0,-231.25Z" style="fill:#258081;"/>
            <path d="M4825,3286.46c0,-63.815 -51.81,-115.625 -115.625,-115.625l-2002.08,0c-63.816,0 -115.625,51.81 -115.625,115.625l-0,231.25c-0,63.816 51.809,115.625 115.625,115.625l2002.08,0c63.815,0 115.625,-51.809 115.625,-115.625l0,-231.25Z" style="fill:#258081;"/>
            <path d="M2425,3911.46c0,-63.815 -51.81,-115.625 -115.625,-115.625l-2002.08,0c-63.816,0 -115.625,51.81 -115.625,115.625l-0,231.25c-0,63.816 51.809,115.625 115.625,115.625l2002.08,0c63.815,0 115.625,-51.809 115.625,-115.625l0,-231.25Z" style="fill:#258081;"/>
            <path d="M4825,3911.46c0,-63.815 -51.81,-115.625 -115.625,-115.625l-2002.08,0c-63.816,0 -115.625,51.81 -115.625,115.625l-0,231.25c-0,63.816 51.809,115.625 115.625,115.625l2002.08,0c63.815,0 115.625,-51.809 115.625,-115.625l0,-231.25Z" style="fill:#258081;"/>
        </g>
        <g>
            <path d="M1602.01,1598.41c-8.981,23.678 -18.78,50.623 -29.394,80.834c-10.615,30.211 -22.863,68.179 -36.743,113.904c-11.431,35.11 -21.434,68.587 -30.007,100.431c-8.573,31.844 -17.351,65.321 -26.333,100.431c-13.064,-7.349 -24.495,-13.677 -34.293,-18.984c-9.798,-5.308 -19.392,-10.003 -28.782,-14.085c-9.39,-4.083 -18.372,-8.165 -26.945,-12.248c-8.573,-4.082 -18.167,-8.165 -28.782,-12.248c15.514,-29.394 29.803,-59.197 42.867,-89.408c13.064,-30.211 26.536,-64.912 40.417,-104.105c11.431,-31.027 22.046,-62.871 31.844,-95.532c9.798,-32.66 19.596,-68.178 29.395,-106.555c13.88,16.331 28.169,28.783 42.866,37.356c14.698,8.573 32.661,15.309 53.89,20.209Zm-60.013,-149.422c-12.248,-8.982 -26.129,-19.188 -41.643,-30.619c-15.513,-11.431 -31.639,-22.659 -48.378,-33.681c-16.738,-11.023 -33.273,-21.434 -49.603,-31.232c-16.33,-9.798 -31.844,-18.372 -46.541,-25.72l61.238,-80.835c31.028,15.514 63.892,33.681 98.594,54.502c34.702,20.821 65.117,40.622 91.245,59.402l-64.912,88.183Zm45.316,-260.876c-8.982,-11.431 -20.209,-23.883 -33.681,-37.355c-13.473,-13.473 -28.578,-26.945 -45.317,-40.417c-16.738,-13.473 -34.089,-26.537 -52.052,-39.193c-17.963,-12.656 -35.927,-23.475 -53.89,-32.456l73.486,-80.835c14.697,11.431 30.007,23.271 45.929,35.518c15.922,12.248 31.844,24.496 47.766,36.743c15.922,12.248 31.436,24.292 46.541,36.131c15.106,11.839 28.782,22.658 41.03,32.456l-69.812,89.408Zm318.44,-86.958l-0,77.16l236.38,0l-0,-77.16l-236.38,-0Zm164.118,268.224c0,15.514 0.205,31.027 0.613,46.541c0.408,15.514 0.204,30.619 -0.613,45.317l193.514,-0l-0,-91.858l-193.514,-0Zm-93.082,91.858c0,-14.698 -0.204,-29.599 -0.612,-44.704c-0.409,-15.106 -0.613,-30.824 -0.613,-47.154l-178.816,-0l0,91.858l180.041,-0Zm93.082,63.687l0,33.069c0,10.615 -0.408,21.23 -1.224,31.844c68.587,0 126.559,-0.612 173.917,-1.837c47.357,-1.225 89.408,-3.47 126.151,-6.736l-0,80.834c-36.743,-3.266 -78.998,-5.307 -126.764,-6.123c-47.766,-0.817 -106.35,-1.225 -175.754,-1.225c-0.816,13.881 -1.633,26.128 -2.449,36.743c-0.817,10.615 -2.042,19.596 -3.675,26.945c44.908,-0 84.918,-0.204 120.028,-0.613c35.11,-0.408 67.158,-1.02 96.144,-1.837c28.986,-0.816 55.523,-1.837 79.61,-3.062c24.087,-1.224 47.97,-2.653 71.649,-4.286l-0,83.284c-38.376,-3.266 -83.285,-5.92 -134.725,-7.961c-51.44,-2.041 -109.412,-3.062 -173.917,-3.062c29.395,38.376 72.874,69.199 130.438,92.47c57.564,23.27 125.539,37.355 203.924,42.254c-15.514,16.331 -26.945,32.865 -34.294,49.603c-7.348,16.739 -13.064,34.906 -17.146,54.503c-53.074,-13.065 -99.003,-27.353 -137.787,-42.867c-38.784,-15.514 -72.261,-32.661 -100.431,-51.44c-28.169,-18.78 -51.644,-40.01 -70.424,-63.688c-18.78,-23.679 -34.702,-50.624 -47.766,-80.835l-4.899,-0c-11.431,24.495 -26.332,47.562 -44.704,69.199c-18.371,21.638 -41.438,42.255 -69.199,61.851c-27.762,19.596 -60.83,38.58 -99.207,56.952c-38.376,18.371 -82.467,36.539 -132.274,54.502c-8.982,-18.78 -18.576,-34.498 -28.782,-47.154c-10.207,-12.656 -24.7,-25.924 -43.48,-39.805c47.358,-9.798 88.592,-20.208 123.702,-31.231c35.11,-11.023 65.525,-22.862 91.245,-35.518c25.72,-12.656 47.154,-26.333 64.3,-41.03c17.147,-14.697 30.619,-30.619 40.418,-47.766c-35.927,-0 -68.383,0.204 -97.369,0.612c-28.987,0.409 -56.136,1.021 -81.447,1.837c-25.312,0.817 -49.604,2.042 -72.874,3.675c-23.271,1.633 -46.745,3.266 -70.424,4.899l-0,-83.284c22.862,1.633 45.724,3.062 68.587,4.286c22.862,1.225 47.97,2.246 75.323,3.062c27.353,0.817 57.36,1.429 90.02,1.837c32.661,0.409 70.22,0.613 112.679,0.613c1.633,-9.798 3.266,-20.005 4.899,-30.619c1.633,-10.615 2.858,-21.638 3.674,-33.069c-62.871,-0 -116.148,0.408 -159.832,1.225c-43.683,0.816 -83.08,2.857 -118.19,6.123l0,-80.834c35.927,2.449 75.732,4.491 119.415,6.124c43.683,1.633 96.961,2.449 159.832,2.449l0,-64.913l-157.995,0c-22.046,0 -42.459,0.205 -61.238,0.613c-18.78,0.408 -37.56,1.021 -56.34,1.837c4.899,-32.66 7.349,-69.812 7.349,-111.454c0,-22.046 -0.612,-43.071 -1.837,-63.075c-1.225,-20.005 -3.062,-38.172 -5.512,-54.503c18.78,1.633 37.56,2.654 56.34,3.062c18.779,0.409 38.988,1.021 60.626,1.838c21.637,0.816 45.112,1.224 70.424,1.224l85.734,0l-0,-58.789c-65.321,0 -116.762,1.225 -154.321,3.675l-0,-148.197c-26.945,-0 -51.849,0.816 -74.711,2.449c-22.862,1.633 -45.316,3.675 -67.362,6.124l-0,-93.082c22.862,3.266 45.724,5.715 68.587,7.348c22.862,1.634 47.357,2.45 73.486,2.45c-0,-35.11 -0.613,-60.014 -1.837,-74.711c-1.225,-14.697 -3.47,-26.945 -6.737,-36.743c22.863,1.633 42.663,2.654 59.402,3.062c16.738,0.408 33.681,-0.204 50.828,-1.837c8.981,-0.817 13.676,1.021 14.084,5.511c0.409,4.491 -3.47,8.778 -11.635,12.86c-8.165,4.083 -13.268,7.757 -15.309,11.023c-2.042,3.266 -3.062,9.39 -3.062,18.372l-0,62.463l236.38,0l-0,-47.766c-0,-12.248 -0.204,-22.454 -0.613,-30.619c-0.408,-8.165 -1.02,-14.697 -1.837,-19.596c-0.816,-4.899 -1.633,-9.799 -2.449,-14.698c21.229,2.45 40.417,3.879 57.564,4.287c17.147,0.408 34.702,-0.204 52.665,-1.837c6.532,-0.817 10.614,0.816 12.247,4.899c1.634,4.083 -1.633,8.573 -9.798,13.472c-7.348,4.9 -12.247,9.594 -14.697,14.085c-2.449,4.491 -3.674,11.227 -3.674,20.209l-0,57.564c22.046,0 41.846,-0.204 59.401,-0.612c17.555,-0.409 33.885,-1.021 48.991,-1.838c15.105,-0.816 29.598,-1.837 43.479,-3.061c13.881,-1.225 27.761,-2.654 41.642,-4.287l0,93.082c-28.578,-3.266 -57.564,-5.511 -86.958,-6.736c-29.395,-1.225 -64.913,-1.837 -106.555,-1.837l-0,148.197c-44.092,-2.45 -99.206,-3.675 -165.344,-3.675c0.817,9.799 1.225,19.597 1.225,29.395c-0,9.798 0.408,19.596 1.225,29.394l91.245,0c26.537,0 51.236,-0.408 74.098,-1.224c22.863,-0.817 44.296,-1.429 64.301,-1.838c20.004,-0.408 39.805,-1.429 59.401,-3.062c-0.817,14.698 -1.429,32.457 -1.837,53.278c-0.409,20.821 -0.613,42.254 -0.613,64.3c0,21.229 0.204,41.846 0.613,61.851c0.408,20.004 1.02,37.355 1.837,52.053c-18.78,-0.817 -37.968,-1.633 -57.564,-2.45c-19.596,-0.816 -40.826,-1.429 -63.688,-1.837c-22.862,-0.408 -47.766,-0.613 -74.711,-0.613l-91.858,0Z" style="fill:currentColor;fill-rule:nonzero;"/>
            <path d="M3091.32,1054.62c-6.532,-22.046 -13.881,-44.908 -22.046,-68.587c-8.165,-23.679 -15.922,-43.275 -23.271,-58.789l122.477,-30.619c6.532,23.678 14.289,49.807 23.271,78.385c8.981,28.578 17.963,55.114 26.945,79.61c56.339,-0 104.717,-0.204 145.135,-0.613c40.417,-0.408 75.731,-0.816 105.942,-1.224c30.211,-0.409 56.135,-1.225 77.773,-2.45c21.637,-1.225 42.254,-2.654 61.851,-4.287l-0,249.853l-110.23,-0l0,-154.321l-752.007,0l0,173.917l-105.33,0l0,-269.449c21.229,1.633 43.888,3.062 67.975,4.287c24.087,1.225 53.277,2.041 87.571,2.45c34.293,0.408 74.914,0.816 121.864,1.224c46.949,0.409 104.309,0.613 172.08,0.613Zm118.802,500.93c99.615,-0.817 185.144,-2.042 256.589,-3.675c71.445,-1.633 136.153,-4.49 194.126,-8.573l-0,111.454c-57.973,-4.083 -122.681,-6.94 -194.126,-8.574c-71.445,-1.633 -156.974,-2.857 -256.589,-3.674l0,253.527c0,17.147 -2.653,32.252 -7.961,45.317c-5.307,13.064 -15.922,24.495 -31.844,34.293c-15.922,9.798 -38.172,18.372 -66.75,25.72c-28.577,7.349 -66.137,13.473 -112.678,18.372c-2.45,-21.23 -6.941,-40.826 -13.473,-58.789c-6.532,-17.963 -17.146,-39.193 -31.844,-63.688c34.294,1.633 61.443,2.245 81.447,1.837c20.005,-0.408 35.315,-2.654 45.929,-6.736c10.615,-4.083 17.555,-10.002 20.821,-17.759c3.266,-7.757 4.899,-18.168 4.899,-31.232l0,-200.862c-113.495,0 -209.843,1.021 -289.045,3.062c-79.201,2.041 -149.83,5.103 -211.885,9.186l0,-111.454c31.028,2.45 64.097,4.287 99.207,5.511c35.11,1.225 72.873,2.45 113.291,3.675c40.417,1.225 84.509,2.041 132.274,2.449c47.766,0.409 99.819,0.613 156.158,0.613l0,-89.408c38.376,-17.964 70.629,-35.315 96.757,-52.053c26.128,-16.738 48.582,-33.681 67.362,-50.828l-331.912,0c-26.128,0 -49.195,0.204 -69.199,0.613c-20.005,0.408 -40.622,1.428 -61.851,3.061l0,-100.431c23.679,1.634 45.929,2.858 66.75,3.675c20.821,0.816 43.071,1.633 66.75,2.449c23.679,0.817 50.419,1.225 80.222,1.225l107.167,0c50.624,0 93.899,-0.204 129.826,-0.612c35.926,-0.409 66.137,-0.817 90.632,-1.225c24.496,-0.408 44.704,-1.021 60.626,-1.837c15.922,-0.817 29.599,-2.041 41.03,-3.675l0,91.858c-16.33,4.899 -43.275,19.392 -80.835,43.479c-37.559,24.087 -88.183,60.626 -151.871,109.617l0,44.092Z" style="fill:currentColor;fill-rule:nonzero;"/>
        </g>
    </g>
</svg>