<?xml version="1.0" encoding="UTF-8" standalone="no"?><!DOCTYPE svg PUBLIC "-//W3C//DTD SVG 1.1//EN" "http://www.w3.org/Graphics/SVG/1.1/DTD/svg11.dtd">
<svg width="100%" height="100%" viewBox="0 0 5000 5000" version="1.1"
    xmlns="http://www.w3.org/2000/svg"
    xmlns:xlink="http://www.w3.org/1999/xlink" xml:space="preserve"
    xmlns:serif="http://www.serif.com/" style="fill-rule:evenodd;clip-rule:evenodd;stroke-linejoin:round;stroke-miterlimit:2;">
    <g>
        <g>
            <path d="M1481.09,2867.11c0,-46.833 -38.022,-84.855 -84.854,-84.855l-169.71,0c-46.832,0 -84.854,38.022 -84.854,84.855l-0,292.79c-0,46.833 38.022,84.855 84.854,84.855l169.71,0c46.832,0 84.854,-38.022 84.854,-84.855l0,-292.79Z" style="fill:#258081;"/>
            <path d="M1883.33,2867.11c0,-46.833 -38.022,-84.855 -84.854,-84.855l-169.71,0c-46.832,0 -84.854,38.022 -84.854,84.855l-0,292.79c-0,46.833 38.022,84.855 84.854,84.855l169.71,0c46.832,0 84.854,-38.022 84.854,-84.855l0,-292.79Z" style="fill:#258081;"/>
            <path d="M1481.09,3396.28c0,-46.832 -38.022,-84.854 -84.854,-84.854l-169.71,-0c-46.832,-0 -84.854,38.022 -84.854,84.854l-0,292.791c-0,46.833 38.022,84.855 84.854,84.855l169.71,-0c46.832,-0 84.854,-38.022 84.854,-84.855l0,-292.791Z" style="fill:#258081;"/>
            <path d="M1883.33,3396.28c0,-46.832 -38.022,-84.854 -84.854,-84.854l-169.71,-0c-46.832,-0 -84.854,38.022 -84.854,84.854l-0,292.791c-0,46.833 38.022,84.855 84.854,84.855l169.71,-0c46.832,-0 84.854,-38.022 84.854,-84.855l0,-292.791Z" style="fill:#258081;"/>
            <path d="M2289.42,2867.11c0,-46.833 -38.022,-84.855 -84.854,-84.855l-169.709,0c-46.833,0 -84.855,38.022 -84.855,84.855l-0,292.79c-0,46.833 38.022,84.855 84.855,84.855l169.709,0c46.832,0 84.854,-38.022 84.854,-84.855l0,-292.79Z" style="fill:#258081;"/>
            <path d="M2691.67,2867.11c-0,-46.833 -38.022,-84.855 -84.855,-84.855l-169.709,0c-46.833,0 -84.855,38.022 -84.855,84.855l0,292.79c0,46.833 38.022,84.855 84.855,84.855l169.709,0c46.833,0 84.855,-38.022 84.855,-84.855l-0,-292.79Z" style="fill:#258081;"/>
            <path d="M1918.59,1929.61c0,-46.833 -38.022,-84.855 -84.854,-84.855l-169.71,0c-46.832,0 -84.854,38.022 -84.854,84.855l-0,292.79c-0,46.833 38.022,84.855 84.854,84.855l169.71,0c46.832,0 84.854,-38.022 84.854,-84.855l0,-292.79Z" style="fill:#258081;"/>
            <path d="M2691.67,3396.28c-0,-46.832 -38.022,-84.854 -84.855,-84.854l-169.709,-0c-46.833,-0 -84.855,38.022 -84.855,84.854l0,292.791c0,46.833 38.022,84.855 84.855,84.855l169.709,-0c46.833,-0 84.855,-38.022 84.855,-84.855l-0,-292.791Z" style="fill:#258081;"/>
            <path d="M3093.59,2862.94c0,-46.832 -38.022,-84.855 -84.854,-84.855l-169.71,0c-46.832,0 -84.854,38.023 -84.854,84.855l-0,292.791c-0,46.832 38.022,84.854 84.854,84.854l169.71,0c46.832,0 84.854,-38.022 84.854,-84.854l0,-292.791Z" style="fill:#258081;"/>
            <path d="M3495.83,2862.94c0,-46.832 -38.022,-84.855 -84.854,-84.855l-169.71,0c-46.832,0 -84.854,38.023 -84.854,84.855l-0,292.791c-0,46.832 38.022,84.854 84.854,84.854l169.71,0c46.832,0 84.854,-38.022 84.854,-84.854l0,-292.791Z" style="fill:#258081;"/>
            <path d="M3093.59,3392.11c0,-46.833 -38.022,-84.855 -84.854,-84.855l-169.71,0c-46.832,0 -84.854,38.022 -84.854,84.855l-0,292.79c-0,46.833 38.022,84.855 84.854,84.855l169.71,0c46.832,0 84.854,-38.022 84.854,-84.855l0,-292.79Z" style="fill:#258081;"/>
            <path d="M3495.83,3392.11c0,-46.833 -38.022,-84.855 -84.854,-84.855l-169.71,0c-46.832,0 -84.854,38.022 -84.854,84.855l-0,292.79c-0,46.833 38.022,84.855 84.854,84.855l169.71,0c46.832,0 84.854,-38.022 84.854,-84.855l0,-292.79Z" style="fill:#258081;"/>
            <path d="M3901.92,2862.94c0,-46.832 -38.022,-84.855 -84.854,-84.855l-169.709,0c-46.833,0 -84.855,38.023 -84.855,84.855l-0,292.791c-0,46.832 38.022,84.854 84.855,84.854l169.709,0c46.832,0 84.854,-38.022 84.854,-84.854l0,-292.791Z" style="fill:#258081;"/>
            <path d="M3901.92,3392.11c0,-46.833 -38.022,-84.855 -84.854,-84.855l-169.709,0c-46.833,0 -84.855,38.022 -84.855,84.855l-0,292.79c-0,46.833 38.022,84.855 84.855,84.855l169.709,0c46.832,0 84.854,-38.022 84.854,-84.855l0,-292.79Z" style="fill:#258081;"/>
            <path d="M1476.92,3917.11c0,-46.833 -38.022,-84.855 -84.854,-84.855l-169.709,0c-46.833,0 -84.855,38.022 -84.855,84.855l-0,292.79c-0,46.833 38.022,84.855 84.855,84.855l169.709,0c46.832,0 84.854,-38.022 84.854,-84.855l0,-292.79Z" style="fill:#258081;"/>
            <path d="M1879.17,3917.11c-0,-46.833 -38.022,-84.855 -84.855,-84.855l-169.709,0c-46.833,0 -84.855,38.022 -84.855,84.855l0,292.79c0,46.833 38.022,84.855 84.855,84.855l169.709,0c46.833,0 84.855,-38.022 84.855,-84.855l-0,-292.79Z" style="fill:#258081;"/>
            <path d="M1476.92,4446.28c0,-46.832 -38.022,-84.854 -84.854,-84.854l-169.709,-0c-46.833,-0 -84.855,38.022 -84.855,84.854l-0,292.791c-0,46.833 38.022,84.855 84.855,84.855l169.709,-0c46.832,-0 84.854,-38.022 84.854,-84.855l0,-292.791Z" style="fill:#258081;"/>
            <path d="M1879.17,4446.28c-0,-46.832 -38.022,-84.854 -84.855,-84.854l-169.709,-0c-46.833,-0 -84.855,38.022 -84.855,84.854l0,292.791c0,46.833 38.022,84.855 84.855,84.855l169.709,-0c46.833,-0 84.855,-38.022 84.855,-84.855l-0,-292.791Z" style="fill:#258081;"/>
            <path d="M2285.25,3917.11c-0,-46.833 -38.022,-84.855 -84.855,-84.855l-169.709,0c-46.833,0 -84.855,38.022 -84.855,84.855l0,292.79c0,46.833 38.022,84.855 84.855,84.855l169.709,0c46.833,0 84.855,-38.022 84.855,-84.855l-0,-292.79Z" style="fill:#258081;"/>
            <path d="M2687.5,3917.11c0,-46.833 -38.022,-84.855 -84.855,-84.855l-169.709,0c-46.832,0 -84.854,38.022 -84.854,84.855l-0,292.79c-0,46.833 38.022,84.855 84.854,84.855l169.709,0c46.833,0 84.855,-38.022 84.855,-84.855l0,-292.79Z" style="fill:#258081;"/>
            <path d="M2285.25,4446.28c-0,-46.832 -38.022,-84.854 -84.855,-84.854l-169.709,-0c-46.833,-0 -84.855,38.022 -84.855,84.854l0,292.791c0,46.833 38.022,84.855 84.855,84.855l169.709,-0c46.833,-0 84.855,-38.022 84.855,-84.855l-0,-292.791Z" style="fill:#258081;"/>
            <path d="M2687.5,4446.28c0,-46.832 -38.022,-84.854 -84.855,-84.854l-169.709,-0c-46.832,-0 -84.854,38.022 -84.854,84.854l-0,292.791c-0,46.833 38.022,84.855 84.854,84.855l169.709,-0c46.833,-0 84.855,-38.022 84.855,-84.855l0,-292.791Z" style="fill:#258081;"/>
            <path d="M3089.42,3912.94c0,-46.832 -38.022,-84.855 -84.854,-84.855l-169.709,0c-46.833,0 -84.855,38.023 -84.855,84.855l-0,292.791c-0,46.832 38.022,84.854 84.855,84.854l169.709,0c46.832,0 84.854,-38.022 84.854,-84.854l0,-292.791Z" style="fill:#258081;"/>
            <path d="M3491.67,3912.94c-0,-46.832 -38.022,-84.855 -84.855,-84.855l-169.709,0c-46.833,0 -84.855,38.023 -84.855,84.855l0,292.791c0,46.832 38.022,84.854 84.855,84.854l169.709,0c46.833,0 84.855,-38.022 84.855,-84.854l-0,-292.791Z" style="fill:#258081;"/>
            <path d="M3089.42,4442.11c0,-46.833 -38.022,-84.855 -84.854,-84.855l-169.709,0c-46.833,0 -84.855,38.022 -84.855,84.855l-0,292.79c-0,46.833 38.022,84.855 84.855,84.855l169.709,0c46.832,0 84.854,-38.022 84.854,-84.855l0,-292.79Z" style="fill:#258081;"/>
            <path d="M1512.5,1929.61c-0,-46.833 -38.022,-84.855 -84.855,-84.855l-169.709,0c-46.832,0 -84.854,38.022 -84.854,84.855l-0,292.79c-0,46.833 38.022,84.855 84.854,84.855l169.709,0c46.833,0 84.855,-38.022 84.855,-84.855l-0,-292.79Z" style="fill:#258081;"/>
            <path d="M3901.92,3912.94c0,-46.832 -38.022,-84.855 -84.854,-84.855l-169.709,0c-46.833,0 -84.855,38.023 -84.855,84.855l-0,292.791c-0,46.832 38.022,84.854 84.855,84.854l169.709,0c46.832,0 84.854,-38.022 84.854,-84.854l0,-292.791Z" style="fill:#258081;"/>
            <path d="M3897.75,4442.11c-0,-46.833 -38.022,-84.855 -84.855,-84.855l-169.709,0c-46.833,0 -84.855,38.022 -84.855,84.855l0,292.79c0,46.833 38.022,84.855 84.855,84.855l169.709,0c46.833,0 84.855,-38.022 84.855,-84.855l-0,-292.79Z" style="fill:#258081;"/>
        </g>
        <g>
            <path d="M1248.51,1206.1l0,-876.714l116.018,0l0,434.769l435.367,-434.769l157.282,0l-367.789,355.231l383.936,521.483l-153.096,-0l-312.172,-443.739l-143.528,139.939l0,303.8l-116.018,-0Z" style="fill-rule:nonzero;"/>
            <path d="M2470.89,1127.76c-39.869,33.888 -78.242,57.809 -115.121,71.763c-36.879,13.954 -76.448,20.931 -118.709,20.931c-69.771,0 -123.394,-17.043 -160.871,-51.131c-37.476,-34.088 -56.215,-77.645 -56.215,-130.67c0,-31.098 7.077,-59.504 21.231,-85.219c14.153,-25.716 32.692,-46.348 55.616,-61.897c22.925,-15.548 48.74,-27.31 77.445,-35.283c21.131,-5.582 53.026,-10.964 95.685,-16.147c86.914,-10.366 150.904,-22.725 191.968,-37.078c0.399,-14.752 0.598,-24.121 0.598,-28.108c0,-43.855 -10.166,-74.754 -30.499,-92.695c-27.51,-24.319 -68.375,-36.479 -122.596,-36.479c-50.634,-0 -88.011,8.87 -112.131,26.612c-24.121,17.742 -41.962,49.138 -53.524,94.19l-105.254,-14.353c9.569,-45.052 25.317,-81.432 47.245,-109.141c21.928,-27.708 53.623,-49.038 95.087,-63.989c41.463,-14.951 89.505,-22.426 144.125,-22.426c54.222,-0 98.277,6.379 132.165,19.137c33.889,12.758 58.807,28.805 74.754,48.141c15.948,19.337 27.111,43.756 33.49,73.259c3.588,18.34 5.382,51.431 5.382,99.273l0,143.528c0,100.07 2.293,163.362 6.877,189.875c4.585,26.512 13.656,51.929 27.211,76.249l-112.43,-0c-11.163,-22.327 -18.34,-48.441 -21.529,-78.342Zm-8.971,-240.409c-39.071,15.948 -97.678,29.503 -175.821,40.666c-44.254,6.379 -75.551,13.556 -93.891,21.529c-18.339,7.974 -32.493,19.636 -42.46,34.985c-9.967,15.35 -14.951,32.394 -14.951,51.132c0,28.705 10.865,52.627 32.593,71.764c21.729,19.137 53.524,28.705 95.386,28.705c41.464,0 78.342,-9.07 110.636,-27.21c32.294,-18.141 56.015,-42.959 71.166,-74.455c11.561,-24.32 17.342,-60.202 17.342,-107.646l0,-39.47Z" style="fill-rule:nonzero;"/>
            <path d="M2737.61,1206.1l-0,-635.109l96.881,-0l-0,90.302c46.646,-69.77 114.024,-104.655 202.134,-104.655c38.274,-0 73.459,6.877 105.553,20.632c32.094,13.755 56.115,31.795 72.063,54.122c15.947,22.326 27.11,48.839 33.489,79.538c3.987,19.934 5.981,54.819 5.981,104.655l-0,390.515l-107.646,-0l0,-386.328c0,-43.856 -4.186,-76.648 -12.559,-98.376c-8.372,-21.729 -23.223,-39.072 -44.553,-52.029c-21.33,-12.958 -46.347,-19.436 -75.053,-19.436c-45.849,-0 -85.419,14.552 -118.709,43.656c-33.29,29.104 -49.936,84.322 -49.936,165.655l0,346.858l-107.645,-0Z" style="fill-rule:nonzero;"/>
            <path d="M3418.17,454.376l0,-124.989l107.646,0l-0,124.989l-107.646,-0Zm-136.351,998.114l20.333,-91.499c21.529,5.581 38.474,8.372 50.833,8.372c21.928,0 38.274,-7.276 49.038,-21.828c10.765,-14.552 16.147,-50.932 16.147,-109.141l0,-667.402l107.646,-0l-0,669.795c-0,78.142 -10.167,132.563 -30.5,163.262c-25.914,39.869 -68.973,59.803 -129.174,59.803c-29.105,0 -57.212,-3.787 -84.323,-11.362Z" style="fill-rule:nonzero;"/>
            <path d="M3691.47,453.18l0,-123.793l107.646,0l0,123.793l-107.646,-0Zm0,752.921l0,-635.109l107.646,-0l0,635.109l-107.646,-0Z" style="fill-rule:nonzero;"/>
        </g>
    </g>
</svg>